<?xml version="1.0" encoding="UTF-8"?>
<svg id="Layer_1"
     fill="rgb(255, 10, 0)"
     data-name="Layer 1"
     xmlns="http://www.w3.org/2000/svg"
     viewBox="0 0 1200 1200"
>
  <path id="black" d="m187.45,960.55c-7.15,5.32-13.25,10.95-20.31,14.85-8.74,4.83-16.05,1.54-19.94-7.69-3.49-8.29-2.74-16.8.59-24.71,3.7-8.77,7.81-17.55,13.07-25.44,55.35-82.94,110.97-165.71,166.53-248.51,1.14-1.7,2.4-3.32,4.11-5.68-3.37-.71-6.38-1.15-9.28-1.99-12.77-3.66-25.72-6.84-38.21-11.29-18.57-6.62-37.43-4.78-56.32-3.41-6.34.46-12.61,1.81-18.92,2.74-6.89,1.02-12.72,3.63-17.44,9.18-5.51,6.47-13.17,8.59-21.44,7.54-8.87-1.13-16.71-4.98-22.84-9.41,4.66-2.24,10.3-3.82,14.48-7.21,8.41-6.82,16.99-7.39,26.92-4.34,4.55,1.4,9.86,1.44,14.63.76,8.31-1.18,16.46-3.39,25.69-5.39-3.31-.71-5.89-1.25-8.47-1.83-21.04-4.79-40.66-12.89-58.91-24.46-2.55-1.62-6.16-2.29-9.25-2.21-7.37.2-12.56-2.88-16.4-8.89-4.07-6.38-8.21-12.71-12.12-18.77,5.78.91,12.86,1.58,19.72,3.22,7.58,1.81,11.36,8.03,14.79,14.49,1.19,2.24,2.93,4.53,5.02,5.9,24.56,16.19,52.02,23.34,81.22,25.47-30.48-14.81-58.32-33.05-79.91-59.55-21.45-26.33-34.6-56.28-40.09-89.52.81-.43,1.62-.87,2.43-1.3,1.48,2.5,3.18,4.9,4.4,7.52,12.45,26.69,29.24,50.27,50.46,70.68,3.92,3.77,8.08,7.3,12.16,10.92.22.2.7.11-.35-.02-1.51-21.03-2.97-42.32-4.58-63.6-.66-8.72-4.6-15.68-11.82-20.8-9.29-6.58-12.75-15.39-9.74-26.55,2.14-7.94,7.18-9.78,13.57-4.8,7.76,6.04,10.03,14.01,8.56,23.54-.94,6.1-3.73,12.44,1.09,18.78,2.71-11.13,4.41-22.28,12.21-31.03.69-.78.27-2.79-.01-4.15-3.12-15.26,5.72-28.3,21.04-30.87,3.51-.59,7.11-.75,10.57-1.55,5.24-1.22,10.38-2.83,14.53-3.99-3.43,10.46-6.83,22.13-11.11,33.46-3.81,10.1-16.38,16.29-27.52,13.64-4.24-1.01-6.33.35-7.32,3.65-2.19,7.33-4.67,14.71-5.63,22.25-2.37,18.58-.92,37.14,2.12,55.57.12.72.53,1.39.95,2.46,4.7-5.07,7.94-10.36,8.95-17.22,2.26-15.24,6.73-19.71,21.65-23.37,5.23-1.28,10.39-2.87,15.91-4-8.15,4.46-10.9,11.84-12.59,20.31-1.72,8.63-8.07,13.65-16.45,14.9-4.83.72-8.15,2.29-10.18,6.56-1.93,4.05-7.42,6.25-6.11,11.97,1.91,8.39,3.66,16.1,12.05,21.68,25.39,16.87,52.69,29.39,81.51,38.9,1.02.34,2.15.34,2.11-.62,8.22-11.32,16.44-22.63,24.63-33.96.76-1.05,1.7-2.17,1.93-3.37,3.43-18.14,14.79-31.72,25.94-45.44,1.27-1.56,2.51-3.35,3.1-5.24,9.59-30.75,28.95-54.88,52.04-76.37,6.72-6.26,14.25-11.64,21.29-17.55,1.67-1.41,3.15-3.19,4.29-5.06,32.64-53.22,76.55-94.43,132.8-121.5,11.77-5.66,18.29-11.88,22.44-24.31,9.15-27.38,26.64-49.4,49.92-66.57,3.3-2.43,3.93-4.44,1.85-7.78-4.35-6.98-8.57-14.04-13.09-21.47,1.14-.19,2.45-.4,4.37-.72-11.28-16.86-25.38-30.47-41.72-42.75,7.64.9,15.31,1.54,22.9,2.73,63.58,9.98,117.17,38.38,159.67,87.01,5.51,6.31,11.49,12.47,12.6,21.54.18,1.47,2.15,2.81,3.45,4.05,12.09,11.5,24.3,22.87,36.25,34.51,2.75,2.68,4.65,6.25,7.03,9.55-21.25,7.42-41.98,14.67-63.71,22.26,4.36,5.48,8.01,10.07,11.69,14.7-1.15.33-2.97.85-5.62,1.61,2.41.93,4.13,1.59,5.86,2.25-.05.37-.09.73-.14,1.1-4.88-.69-9.75-1.38-14.63-2.07-.08.23-.17.47-.25.7,5.47,2.14,10.95,4.29,16.42,6.43l-.11,1.34c-6.91-.97-13.83-1.94-20.74-2.91-.16.27-.33.53-.49.8,6.8,3.51,13.6,7.03,20.88,10.8h-19.81c5.03,2.81,9.55,5.34,15.02,8.4-5.74.6-10.59,1.1-16.64,1.73,4.3,2.8,7.75,5.06,11.21,7.31-.08.37-.17.75-.25,1.12-4.05-.48-8.1-.97-12.15-1.45-.21.4-.42.79-.63,1.19,4.5,2.59,9,5.19,14.15,8.15-3.87.48-7.5.93-12.68,1.57,4.44,2.47,7.91,4.4,12.43,6.91-4.5.69-8.16,1.26-13.55,2.09,4.6,2.37,8.03,4.14,12.42,6.41-4.81,2.28-9.35,4.45-13.97,6.64-.73,115.09-62.66,186.38-167.06,227.84,2.83,2.09,4.98,4.19,7.54,5.48,17.58,8.84,35.19,17.6,52.9,26.17,6.69,3.24,12.32,6.98,13.78,15.06.32,1.76,2.53,3.29,4.1,4.67.78.7,2.16.67,3.1,1.25,17.32,10.67,35.98,8.09,54.63,5.53,5.58-.77,11.16-1.54,16.7-2.54,6.93-1.25,13.01-11.05,11.3-17.92-2.91-11.67-.21-18.77,10.56-24.12,7.63-3.79,15.89-6.29,24.3-8.85-7.68,5.18-10.02,12.76-11.19,21.18-.91,6.51-5.26,11-11.21,13.05-6.78,2.34-10.07,7.24-12.82,14.58,7.45-1.49,14.27-2.78,21.05-4.24,5.32-1.14,10.53-2.97,15.9-3.64,7.34-.92,12.68-4.41,16.04-10.75,6.48-12.21,13.21-24.33,18.89-36.92,3.85-8.54.58-16.5-7.22-21.92-2.77-1.93-5.74-3.59-8.39-5.68-7.34-5.78-9.82-16.81-5.82-25.04,2.5-5.13,5.4-6.09,10.35-3.37,7.76,4.27,11.47,10.86,11.8,19.72.26,7.32-2.07,15.06,3.62,22.71.69-5.8,1.47-10.76,1.81-15.74.32-4.68.11-9.4.22-14.09.16-6.63-.76-12.44-5.14-18.31-8.03-10.78-6.43-19.86,3.23-29.61,2.38-2.4,4.94-4.67,7.04-7.3,2.08-2.6,3.69-5.57,5.17-7.86,3.17,8.58,6.68,17.52,9.76,26.6,4.01,11.84-1.28,21.67-14.91,27.71,2.66,33.23-4.56,64.27-23.84,93.39,8.15-2.44,15.33-4.65,22.54-6.73,9.01-2.59,18.1-4.9,27.04-7.71,2.21-.69,4.58-2.48,5.77-4.44,3.31-5.44,6.16-11.17,8.9-16.92.81-1.7,1.09-3.91.87-5.79-1.55-13,3.49-20.62,15.94-24.69,5.59-1.82,10.89-4.52,15.83-6.62-.52,5.77-1.04,12.46-1.74,19.12-1.15,10.92-9.2,19.28-20.34,19.82-5.22.25-7.81,2.48-9.92,6.54-1.78,3.43-3.72,6.79-5.38,9.79,12.05-.44,23.84-1.35,35.61-1.07,5.2.12,8.78-.79,12.96-4.12,10.52-8.37,24.55-13.49,40.42-2.43,5.38,3.75,12.09,5.6,18.57,8.49-9.21,6.74-17.61,15.52-29.31,19.1-10.28,3.14-19.55.5-26.45-7.76-4.12-4.93-8.83-7.12-15.05-7.29-13.86-.39-27.14,2.08-40.48,7.19,6.73,4.29,12.84,8.39,19.19,12.07,1.57.91,3.99.8,5.95.56,10.48-1.29,19.01,1.59,26.05,9.95,3.31,3.92,8.34,6.39,13.49,10.18-9.77.94-19.36,2.55-28.94,2.55-7.16,0-12.65-4.46-15.56-11.27-5.73-13.41-17.81-16.86-30.39-19.1-2.81-.5-6.12,1.33-9.1,2.4-27.15,9.73-54.12,19.99-81.48,29.11-11.84,3.95-24.45,5.61-37.07,8.38.84.72,1.66,1.57,2.61,2.23,21.94,15.13,43.89,30.25,65.87,45.33,1.17.8,2.79,2.04,3.83,1.75,12.59-3.54,24.69.03,36.64,2.87,17.67,4.2,35.02,9.72,52.68,13.97,10,2.41,19.29-1.11,27.69-6.64,1.09-.71,2.18-2.87,1.89-4-2.95-11.45,2.76-18.75,11.5-24.57,2.79-1.85,5.81-3.46,8.92-4.69,8.74-3.46,13.88.24,13.71,9.63-.18,10.39-7.74,20.03-17.6,24.04-9.4,3.81-18.42,8.54-27.7,12.9,12.9,5.78,25.31,11.53,37.89,16.9,5.1,2.17,7.51-2.05,9.44-5.59,1.77-3.26,2.56-7.03,4.1-10.44,4.54-10.03,16.22-14.68,26.5-10.71,3.93,1.51,5.54,4.01,4.3,8.34-3.02,10.58-10.33,16.21-20.74,18.21-4.73.91-9.53,1.41-15.89,2.33,2.42,1.75,3.42,2.8,4.65,3.3,9.03,3.65,18.03,7.44,27.2,10.7,7.08,2.51,12.26-.53,12.61-8.11.56-11.97,7.01-17.33,17.99-19.31,4.71-.85,9.22-2.74,14.14-4.25-2.94,5.64-5.15,11.91-9.08,16.79-2.94,3.65-7.77,6.59-12.32,7.93-5.14,1.51-8.55,4.16-11.96,9.19,2.78.29,4.87.68,6.96.7,6.95.05,13.93.38,20.83-.24,3.28-.29,6.9-1.85,9.48-3.93,9.75-7.88,17.19-8.43,27.63-1.83,4.7,2.97,9.84,5.22,14.86,7.85-7.16,4.23-14.51,9.19-22.4,13.06-8.7,4.27-17.04,1.92-22.95-5.93-2.18-2.9-4.01-3.16-7.41-2.56-7.92,1.41-15.98,1.99-24.45,2.97,1.04.89,1.95,1.94,3.08,2.58,10.94,6.18,21.96,12.22,32.86,18.47,2.87,1.64,5.42,3.85,8.12,5.79-.28.7-.56,1.41-.83,2.11-2.61-.29-5.33-.23-7.82-.93-15.77-4.42-29.24-13.09-42.72-22.14-9.79-6.57-20.94-11.11-31.49-16.56-.64.79-1.27,1.58-1.91,2.37,13.47,15.52,26.95,31.05,40.42,46.57-.22.29-.44.57-.66.86-2.79-1.96-5.58-3.91-8.37-5.87-16.39-11.51-29.27-26.28-40.39-42.81-1.92-2.85-5.26-5.18-8.44-6.67-8.93-4.18-18.12-7.8-27.91-10.62,6.56,6.91,12.86,14.09,19.75,20.66,6.39,6.09,8.78,14.66,5.19,21.87-2.17,4.36-5.18,5.99-10.03,3.99-9.94-4.1-15.6-13.44-12.24-24.78,3.06-10.33-1.05-15.93-8.75-21.04-20.99-13.93-44.46-21.35-68.89-26.09-6.96-1.35-14.11-1.71-21.96-1.3,2.38,2.18,4.75,4.37,7.15,6.53,32.33,29.18,61.02,61.72,88.09,95.75,11.91,14.97,24.86,29.25,35.41,45.13,19.34,29.12,34.79,60.45,47.81,92.93,1.36,3.38,1.96,7.06,2.92,10.61-.74.4-1.48.8-2.22,1.2-2.08-1.91-4.36-3.65-6.22-5.76-16.3-18.49-30.39-38.59-44.26-58.96-17.53-25.73-36.59-50.42-54.99-75.56-.95-1.3-1.93-2.59-1.98-4.7,6.49,7.03,13.04,14.01,19.47,21.1,6.56,7.23,13,14.57,19.89,21.51-26-37.82-56.37-71.79-90.61-102.33-26.04,22.04-40.83,88.6-26.34,117.92,19.97-2.37,30.51,11.41,25.59,33.46-1.86,8.35-5.87,10.28-13.84,6.65-12.41-5.64-18.98-18.33-16.55-31.75.22-1.23.3-2.73-.2-3.79-7.69-16.21-9.37-33.47-9.2-51.07,0-.53-.29-1.06-.85-3.01-1.3,2.33-2.3,3.64-2.81,5.12-4.17,12.12-15.52,18.52-27.96,15.69q-11.8-2.68-22.91-.54c6.63-10.48,12.99-20.29,23.68-26.14,7.97-4.37,14.4-3.56,26.46,3.05,1.63-2.41,4.07-4.7,4.9-7.47,4.12-13.78,7.82-27.69,11.63-41.57.07-.27-.23-.64-.5-1.34-9.18,8.41-19.28,14.98-31.43,17.97-12.01,2.95-23.38,2-34.19-4.47-1.85-1.11-4.64-1.51-6.79-1.13-12.04,2.17-20.51-2.19-25.22-13.57-3.13-7.56-6.09-15.18-8.69-21.71,6.61,0,14.45-.85,22.03.21,10.52,1.46,15.41,9.66,18.91,18.85,1.63,4.27-.21,9.67,5.39,12.72,7.17,3.91,14.49,4.95,22.29,3.55,19.32-3.48,33.21-14.97,44.28-30.45,2.39-3.34,4.41-6.93,6.71-10.59-4.12-4.54-8.78-6.87-14.81-8.22-18.44-4.12-37.06-8.03-54.84-14.25-13.22-4.63-25.84-4.61-39.22-3.26-10.42,1.05-21.03,1.11-31.5.57-9.2-.47-16.34-5.84-20.91-13.64-4.7-8.01-8.46-16.57-12.83-25.3,10.16-5.28,18.84-6.53,28.45-.86,29.03,17.13,59.93,30.07,92.35,39.3,9.28,2.64,18.72,4.74,28.09,7.08.29-.6.57-1.21.86-1.81-14.34-10.15-28.44-20.64-43.06-30.37-27.87-18.55-57.23-34.33-88.7-46.02-3.76-1.4-6.83-2.24-9.82,1.72-1.28,1.7-4.16,2.19-6.31,3.23-.7-2.17-1.39-4.34-2.1-6.5-.22-.67-.52-1.32-1.31-3.27-1.64,3.07-2.82,5.19-3.91,7.34-2.51,4.92-4.94,5.15-8.16.85-.78-1.04-1.94-2.48-2.98-2.53-7.24-.39-10.79-5.09-13.77-10.85-.79-1.52-2.5-3.48-3.93-3.61-23.95-2.11-47.93-3.91-71.88-5.94-3.89-.33-5.92.83-7.64,4.51-2.51,5.41-6.39,9.75-13.56,8.99-.55-1.9-1.07-3.67-1.81-6.2-1.92,2.65-3.31,5.04-5.17,6.98-1.72,1.79-3.83,3.99-5.99,4.27-1.26.16-2.96-3.1-5.13-5.57-10.12-2.36-11.58-3.92-15.61-16.82-27.9-7.02-55.12-13.94-82.4-20.62-1.8-.44-4.31.45-6.01,1.51-5.56,3.46-11.05,7.07-16.23,11.06-2.24,1.73-4.17,4.29-5.37,6.88-13.52,29.09-26.97,58.22-40.23,87.43-7.89,17.38-15.41,34.93-23.1,52.4-.44-.17-.88-.35-1.31-.52,12.8-33.09,25.33-66.28,38.47-99.23,13.2-33.07,27.02-65.89,39.69-99.88-1.63,1.72-3.83,3.16-4.8,5.19-20.63,43.57-42.14,86.75-61.35,130.94-20.77,47.79-39.01,96.67-59.09,144.76-7.92,18.97-17.38,37.36-27.09,55.51-5,9.33-12.76,16.76-23.64,19.67-8.16,2.19-13.47-.31-16.89-7.94-.84-1.87-1.45-3.86-1.97-5.84-2.45-9.36-4.84-18.74-7.04-27.3ZM714.33,296.34c7.95,4.94,16.55,3.3,20.5-3.93,6.1-6.93,5.91-14.42-.54-20.72-8.09-7.92-18.95-6.78-26.54,2.77-4.67,9.21-2,17.84,6.81,22.06l-.23-.18Zm-361.57,393.99c3.25-6.08,6.5-12.16,9.75-18.24.71-1.66,1.44-3.32,2.14-4.99,2.07-5,7.65-8.59,6.54-15-7.31.6-11.3,4.71-14.95,10.21-57.21,86.14-108.37,175.88-159.19,265.84-3.4,6.02-6.38,12.27-9.56,18.41.3.15.6.3.9.45,11.52-18.3,23.05-36.61,34.57-54.91.39.24.79.48,1.18.72-8.82,15.63-17.64,31.26-26.46,46.9.26.14.53.28.79.41,23.84-38.56,47.67-77.12,71.51-115.68.42.25.84.5,1.26.75-5.34,10.01-10.68,20.02-16.01,30.04-5.36,10.09-10.78,20.15-16.05,30.28-5.19,9.98-10.28,20-15.31,30.06-5.11,10.22-10.19,20.45-15.08,30.78-4.74,10.01-9.23,20.15-13.82,30.23.49.21.98.43,1.47.64,2.51-5.22,4.81-10.55,7.55-15.65,39.97-74.34,79.97-148.65,120.04-222.94,3.72-6.9,7.91-13.55,11.88-20.32-.92,2.23-1.65,4.55-2.78,6.67-44.6,83.11-83.48,168.94-121.67,255.1-2.17,4.88-3.97,9.93-5.94,14.9,1.75-.9,2.5-2.18,3.14-3.52,14.04-29.65,28.28-59.2,42.05-88.97,30.99-67.02,61.47-134.28,96.11-199.54,2.18-4.11,3.97-8.42,5.94-12.64Zm320.72-209.13c-15.86,27.14-38.8,43.1-70.67,45.1-2.09.13-4.43.67-6.12,1.81-7.3,4.94-14.11,10.65-21.63,15.21-70.26,42.68-145.75,72.91-225.12,93.74-13.05,3.42-26.24,6.33-39.36,9.47,74.05-5.68,141.51-32.73,207.72-63.88-34.2,18.88-69.11,36.2-105.3,50.82-3.94,1.59-6.45,3.66-8.18,7.64-5.9,13.58-12.22,26.98-18.35,40.46-.53,1.16-.81,2.43-1.21,3.64.54.39,1.09.78,1.63,1.17,10.92-11.33,21.53-22.98,32.89-33.85,5.88-5.62,13.08-9.85,19.69-14.71.3.43.61.87.91,1.3l-6.59,7.53c.22.23.44.45.65.68,7.09-3.48,14.19-6.96,21.28-10.44.19.34.38.68.57,1.02-4.73,3.27-9.46,6.54-14.19,9.82.24.46.49.93.73,1.39,27.19-11.52,54.37-23.05,81.3-34.46-20.03,16.6-44.05,26.53-67.96,36.73,17.87-2.62,33.77-10.88,50.47-17-2.3,1.43-4.61,2.86-6.92,4.29.14.31.28.61.41.92,11.02-4.54,22.04-9.09,33.06-13.63-7.42,5.29-15.26,9.69-23.36,13.5-8.06,3.79-16.4,7-24.62,10.47,27.55-4.47,51.82-17.29,76.2-29.84.3.6.61,1.2.91,1.81-14.2,8.02-28.4,16.05-42.82,24.2,23.57-7.04,45.04-18.32,66.46-29.71-15.8,13.16-33.68,22.6-52.51,30.43,29.56-7.25,55.96-21.67,82.46-35.95-4.46,3.15-8.93,6.3-13.39,9.45.16.27.32.54.49.81,8.03-4.07,16.06-8.14,24.09-12.21.26.5.52,1,.79,1.5-14.07,7.63-28.14,15.26-42.2,22.9,35.54-12.46,67.89-30.19,95.15-56.67,32.97-32.02,51.97-78.61,53.35-96.42-3.85,7.65-7.75,15.41-11.65,23.17.68-5.75,2.52-11.02,3.98-16.39,1.52-5.6,2.85-11.27,3.94-16.96,1.01-5.29,1.59-10.65,2.36-15.98-5.12,21.81-14.94,46.41-21.46,51.08,7.75-20.55,13.38-41.25,14.03-61.65-2.85,9.82-6.07,20.92-9.3,32.03-.66-.14-1.33-.27-1.99-.41,4.83-20.12,8.07-40.3,3.21-61.52-.46,10.54-.89,20.38-1.32,30.22-.54,0-1.08,0-1.62,0-.08-16.8-1.76-33.27-9.37-48.88,1.88,10.62,3.71,20.92,5.54,31.22l-1.56.33c-2.72-13.01-5.53-25.98-13.84-36.92.89,2.56,1.79,5.11,2.68,7.67-.42.22-.84.44-1.26.67-5.27-15.12-16.91-23.48-30.53-29.93-6.43-3.04-12.66-6.55-18.77-10.2-7.47-4.47-14.71-9.32-22.8-14.48,1.57-.36,2-.61,2.25-.49,4.06,1.93,8.11,3.88,12.14,5.88,19.98,9.91,40.47,18.06,63.3,17.52,4.05-.1,8.08-1.23,12.12-1.88-.1-.22-.19-.44-.29-.67-5.57-1.04-11.14-2.09-16.71-3.13.08-.27.17-.54.25-.81,5.47-.29,10.93-.58,17.37-.91-7.23-2.42-13.24-4.44-19.25-6.45.13-.52.26-1.04.4-1.55h19.17c-8.58-2.55-16.82-5-25.06-7.45.1-.56.19-1.12.29-1.68,2.92-.79,5.83-1.58,10.12-2.75-4.25-1.01-7.04-1.68-9.83-2.35-.01-.37-.03-.75-.04-1.12,4.6-.42,9.2-.84,13.8-1.26.03-.3.05-.6.08-.9-3.22-1.23-6.43-2.47-9.65-3.7,0-.26-.01-.53-.02-.79h16.29c-4.04-2.6-6.65-4.28-9.64-6.2,2.71-.29,4.98-.54,8.85-.95-3.51-2.54-5.77-4.18-8.84-6.39h9.68c-2.37-1.91-4.04-3.24-6.3-5.06,2.56-.2,4.16-.33,6.23-.49-2.82-2.18-5.22-4.04-7.81-6.06,1.26-.37,2.08-.61,3.21-.93-2.4-1.14-4.41-2.11-6.65-3.18.94-.6,1.66-1.05,2.46-1.56-2.11-1.08-4.15-2.13-6.84-3.52,2.04-.25,3.28-.41,4.32-.54-2.68-1.53-5.95-2.53-7.9-4.71-4.4-4.92-8.18-10.4-12.15-15.69-3-4-5.89-8.09-9.29-12.76,12.83,4.56,25.11,7.76,38.01,6.26.35-.64.7-1.28,1.05-1.93-6.18-5.33-12.35-10.65-18.53-15.98.1-.31.2-.63.3-.94,11.45,4.37,22.89,8.73,34.11,13.01-.86-1.44-1.87-3.13-3.69-6.18,4.35,1.68,7.31,2.83,10.54,4.08-.36-2.36-.67-4.34-.98-6.33.55-.24,1.1-.48,1.65-.72,2.41,3.76,4.83,7.52,7.57,11.79-.42-4.91-.8-9.41-1.29-15.11,3.83,4.7,6.75,8.28,9.67,11.86.37-.12.75-.24,1.12-.36-1.54-5.69-3.07-11.38-4.61-17.08.31-.19.61-.39.92-.58,3.83,5.4,7.65,10.79,12.45,17.56-1.97-6.45-3.5-11.43-5.03-16.41,2.55,1.9,4.53,4.09,6.35,6.41,1.93,2.45,3.71,5.01,5.56,7.53.5-.31.99-.63,1.49-.94-3.15-4.89-5.58-10.5-9.58-14.56-28.17-28.57-61.48-48.91-99.86-60.77-5.44-1.68-11.12-2.54-16.7-3.79-.05.33-.1.66-.15.99,6.54,2.9,13.09,5.8,19.63,8.7-.09.24-.17.48-.26.71l-15.81-3.1c-.06.23-.12.46-.18.69,5.57,2.45,11.15,4.9,16.72,7.34-.13.34-.26.68-.4,1.02-4.75-.8-9.5-1.6-15.33-2.58,6.96,3.02,12.85,5.58,18.74,8.13-.09.23-.19.46-.28.69-3.79-.56-7.57-1.12-12.56-1.86,7.96,3.88,14.72,7.18,21.48,10.48-.21.36-.41.73-.62,1.09-5.68-.9-11.36-1.81-17.79-2.83,7.52,4.89,14.33,9.31,21.13,13.73-.24.41-.49.83-.73,1.24-2.54-.54-5.05-1.2-7.61-1.57-2.54-.37-5.12-.46-7.69-.67-.04.39-.08.79-.12,1.18,3.72,1.94,7.44,3.87,12.38,6.45-3.07.19-4.59.29-6.65.42,6.21,3.96,11.85,7.57,18.72,11.95-27.84.36-39.31,2.15-45.33,6.8,5.45-.53,10.9-1.07,16.91-1.65-9.87,3.25-19.15,6.31-28.43,9.36l.52,1.63c5.03-1.31,10.06-2.61,15.09-3.92l.18.82c-5.3,2.54-10.6,5.09-15.9,7.63.17.37.34.74.52,1.11,2.52-.83,5.04-1.66,8.39-2.76-9.77,6.42-18.68,12.29-27.6,18.15.31.53.62,1.07.93,1.6,2.23-1.1,4.47-2.2,6.7-3.3-15.09,14.94-24.96,32.12-26.94,53.18-9.3,1.32-18.44,2.63-27.58,3.93.05.46.1.92.14,1.39h12.31c-11.4,3.25-24.57,7-37.73,10.75.13.45.26.91.39,1.36,9.22-1.91,18.45-3.81,27.67-5.72.02.16.03.32.05.48-11.58,3.93-23.16,7.85-34.73,11.78l.47,1.41c4.93-1.14,9.86-2.28,14.79-3.42.03.17.05.34.08.52-12.81,5.7-25.63,11.41-38.44,17.11.13.28.27.57.4.85,10.9-3.63,21.8-7.27,32.69-10.9.18.49.36.97.53,1.46-15.02,5.77-29.45,12.64-42.34,22.35,9.81-4.61,19.63-9.21,29.44-13.82.02.15.04.3.06.44-11,7.03-21.99,14.06-32.99,21.09.27.41.53.82.8,1.22,10.44-4.7,20.88-9.4,31.31-14.1.25.51.49,1.02.74,1.54-26.32,18.48-52.65,36.96-79.32,55.68,24.83.41,47.84-6.25,70.14-16.3-18.45,15.27-39.43,24.13-64.66,25.45,11.05,7.33,22.27,8.76,33.45,8.47,11-.28,22.22-1.22,32.86-3.84,10.81-2.66,21.48-6.85,31.38-11.99,9.69-5.03,18.32-12.1,27.9-18.6-22.14,26.95-49.41,42.1-84.74,40.88.39.82.46,1.27.72,1.44.45.3,1,.47,1.53.65,11.99,4.1,24.32,4.81,36.68,2.73,27.06-4.55,50.79-16.71,72.59-32.95,5.35-3.98,10.44-8.3,15.65-12.47-23.88,31.1-55.12,48.97-94.56,52.68,2.63,1.57,5.24,2.95,8.02,3.55,15.92,3.43,31.03-.29,45.61-6.19,34.28-13.87,59.22-38.36,77.88-69.75,1.62-2.72,3.24-5.44,4.86-8.16.45.5.89.99,1.34,1.49-24.72,59.61-65.77,94.91-134.86,88.66,6.11,4.28,17.97,7.26,29.08,7.5,23.35.52,44.1-7.66,63.96-18.94,15.1-8.58,28.11-19.69,39.89-32.35-11.33,17.97-27.06,31.05-45.52,41.19-18.5,10.16-38.22,15.44-59.22,15.65,42.59,12.41,75.08-6.68,105.45-34.7-.78,1.68-1.08,2.76-1.71,3.6-20.63,27.79-44.22,50.36-81.95,46.97,11.61,7.81,26.53,9.32,45.19,3.93,19.43-5.61,35.86-15.92,49.04-31.22Zm-154.48-8.67c-4.66-3.78-10.02-3.64-16.34-.57-21.05,10.24-42.46,19.75-63.56,29.9-28.99,13.95-55.08,31.97-77.12,55.68-7.66,8.23-16.08,15.77-24.28,23.48-2.68,2.52-5.78,4.58-8.69,6.86.4.58.8,1.16,1.21,1.74,62.99-39.07,125.99-78.14,188.78-117.08Zm-360.2,502.24c.49.28.99.56,1.48.84,58.21-108.04,122.92-212.18,189.99-315.75-6.43-.84-7.69,3.57-9.77,6.58-25.54,37.11-51.71,73.82-76.32,111.54-27.51,42.16-50.1,87.18-72.91,132-10.96,21.53-21.66,43.19-32.48,64.79Zm396.01-478.27c-81.16,49.12-163.72,95.66-248.03,139.09,90.13-36.07,175.15-82.16,258.93-131.73-3.73-2.52-7.25-4.9-10.9-7.36Zm-62.55-32.72c-6.11-4.15-11.99-4.4-18.38-1.64-14.61,6.31-29.73,11.56-43.87,18.77-9.7,4.94-18.53,11.93-26.95,18.95-9.64,8.05-18.34,17.22-27.57,25.76-6,5.55-12.23,10.85-18.72,16.59,8.82-.12,116.3-62.59,135.5-78.43Zm87.6,56.77c-7.7-7.18-7.65-7.09-14.74-2.77-64.65,39.47-131.64,74.37-201.67,103.32-15.72,6.5-31.64,12.51-47.48,18.74,93.69-27,180.61-68.92,263.88-119.29Zm40.18,165.89c-.65-1.41-.98-4.08-2.3-4.73-16.95-8.32-33.98-16.47-51.14-24.32-2.49-1.14-5.84-.95-8.71-.63-11.17,1.24-22.27,3.03-33.45,4.12-5.8.57-11.69.1-17.55.1-.13.82-.25,1.65-.38,2.47,3.18.95,6.3,2.19,9.55,2.78,8.44,1.54,15.38,5.43,21.16,11.81,1.5,1.65,4.18,2.95,6.41,3.12,25.03,1.87,50.08,3.49,76.41,5.27Zm-308.25-67.16c80.71-38.31,158.02-82.47,235.2-128.06-6.32-3.96-10.63-.7-14.97,1.77-53.48,30.5-106.96,60.99-160.38,91.58-20.01,11.46-39.9,23.14-59.84,34.72Zm5.98-11.26c.2.32.41.64.61.96,70.49-41.49,140.98-82.98,211.47-124.47l-.65-1.88c-2.41.6-5.01.8-7.19,1.87-58.32,28.44-113.52,62.18-167.16,98.56-12.33,8.36-24.71,16.64-37.07,24.96Zm334.68,155.82c2.71,13.85,10.5,21.01,23.88,22.24,10.5.96,21.2,1.84,30.06,8.12,6.85,4.86,13.45,3.59,19.37,2.14-17.35-10.6-35.39-21.21-52.97-32.54-7.3-4.71-13.58-3.65-20.34.03Zm-264.72-268.43c.65.75,1.3,1.49,1.95,2.24,27.8-9.87,49.75-29.21,74.15-45.97-4.47-1.79-8.05-2.94-11.36-4.62-3.23-1.64-5.5-1.43-8.4,1.11-16.77,14.7-33.74,29.16-50.7,43.64-1.68,1.43-3.75,2.41-5.64,3.6Zm584.37,176.61c-6.24-2.32-12.44-4.61-18.63-6.93-9.72-3.63-19.14-3.08-27.98,2.47-1.72,1.08-3.96,3.52-3.71,4.95.28,1.62,2.88,3.42,4.83,4.06,4.24,1.39,8.66,2.5,13.09,2.99,11.71,1.31,23.1.79,32.41-7.54Zm-208.37-381.69c17.82,5.45,34.82,10.66,51.82,15.86.34-.4.67-.79,1.01-1.19-11.73-10.25-23.46-20.49-35.06-30.62-6.63,5.95-12.05,10.82-17.76,15.95Zm-340.95,375c.02.49.04.98.07,1.46,5.84,1.18,11.64,2.63,17.53,3.48,16.34,2.38,32.7,4.55,49.08,6.64,1.26.16,2.69-1.01,4.05-1.55-.91-1.35-1.56-3.06-2.8-3.95-1.29-.94-3.13-1.18-4.77-1.58-10.2-2.47-20.66-4.14-30.54-7.52-11.72-4.01-22.01-.24-32.62,3.02Zm330.99-331.87c19.17-5.91,37.64-11.61,56.11-17.3h-61.22c1.92,6.5,3.44,11.63,5.12,17.3Zm79.53,653.1l-1.06-.35c-.16-2.06-.16-4.14-.5-6.17-1.02-6.25-2.89-12.1-8.82-15.54-6.25-3.63-11.3-1.1-11.91,6.06-.7,8.2,2.55,15.23,8.09,20.83,2.66,2.69,6.92,3.81,10.45,5.64,1.25-3.49,2.49-6.98,3.74-10.47Zm-326.24-266.06c.6.12,1.21.24,1.81.36.88-1.97,2.21-3.85,2.57-5.91,2.02-11.77,3.95-23.56,5.59-35.39.53-3.87-.27-7.89-5.22-8.48-5.12-.61-7.42,3.39-7.78,7.23-1.33,14.21.4,28.26,3.05,42.18Zm242.5-410.33h64.04c-9.79-2.63-19.04-5.43-28.43-7.56-9.42-2.13-19-3.6-28.48-5.35-2.35,4.25-4.37,7.92-7.13,12.91Zm-510.26,125.16c-.45-.52-.9-1.04-1.34-1.55-1.67.11-3.34.15-5,.33-14.62,1.62-22.56,7.97-25.05,20.61-.52,2.66.51,5.62.82,8.44,2.82-.97,6.47-1.13,8.31-3.04,7.71-7.98,14.89-16.49,22.26-24.8Zm397.76,293.8c3.9-14.37,4.47-27.28,2.95-40.22-.28-2.35-3.66-4.32-5.61-6.47-2.26,2.13-4.96,3.97-6.61,6.5-.95,1.45-.56,4.09-.13,6.05,2.07,9.47,4.31,18.91,6.61,28.32.36,1.49,1.34,2.84,2.8,5.82Zm312.71,31.5c-.02-4.17-2.63-6.39-6.07-4.15-6.17,4.01-11.91,8.79-17.39,13.73-1.51,1.36-1.8,4.4-2.07,6.73-.37,3.33,1.59,4.64,4.85,4.55,8.76-.26,20.71-12.26,20.68-20.86Zm37.41,270.02c-3.1-12.94-42.06-70.98-51.81-77.12,17.6,25.63,29.87,54.44,51.81,77.12Zm-239.75-105.32c7.39-.99,14.89-1.38,22.04-3.15,5.07-1.25,9.79-4.17,14.42-6.78,1.03-.58,1.59-3.06,1.33-4.47-.15-.8-2.41-1.67-3.74-1.7-14.01-.34-26.44,2.81-34.05,16.1Zm-220.59-210.06c7.34-7.52,9.02-27.6,3.44-35.34-.33-.46-.62-1.15-1.07-1.28-2.39-.68-4.95-1.9-7.18-1.48-.93.17-1.98,4.06-1.62,6.02,1.47,8.09,3.49,16.08,5.21,24.13.53,2.47.77,4.99,1.21,7.95Zm181.38,119.64c6.23,8.66,13.57,15.64,22.79,20.49,1.43.75,3.39.49,5.1.7.05-1.74.55-3.62.08-5.21-3.22-11.02-12.5-16.34-27.98-15.98Zm127.09-283.76c-13.96,11.95-15.75,28.74-3.89,35.45,5.79-11.1,3.24-22.92,3.89-35.45Zm-190.92,138.3c-1.72,13.38,8.76,23.06,9,35.47,5.8-8.75,4.54-17.9,2.54-27.02-1.54-7.02-3.52-8.38-11.54-8.44Zm257.02-66.94c-16.34,2.62-24.53,12.35-21.18,25.5,10.23-5.91,16.24-14.56,21.18-25.5Zm166.09,214.87c-9.39-6.18-18.48-8.94-28.38-3.51-1.4.77-2.15,2.7-3.2,4.1,1.32.88,2.55,2.3,3.98,2.55,9.3,1.62,18.5,1.81,27.6-3.13Zm-134.18,25.39c5.95-7.94.37-19.53-11.35-21.56-3.23,9.54,2.06,19.59,11.35,21.56ZM235.46,521.53c-7,2.27-12.93,4.04-15.73,9.7-1.42,2.87-1.92,9.19-.7,9.82,3.91,2.03,8.18-.18,10.25-4.12,2.35-4.5,3.84-9.45,6.18-15.4Zm751.85,274c-11.38-.99-20.32,6.46-19.61,16,8.95.3,17.1-6.22,19.61-16Zm-230.5-112.32c7.11-.11,13.29-8.55,14.61-19.91-12.95,2.62-17.91,9.39-14.61,19.91ZM172.3,456.9c-.71,8.16,4.88,17.1,12.82,20.48,3.11-9.55-4.89-19.3-12.82-20.48Zm631.26,136.11c1.45,9.73,6.62,15.8,14.65,20.28.77-11.22-3.68-17.43-14.65-20.28Zm-669.59-1.92c4.2,12.15,8.44,15.82,16.13,14.19-4.54-12.17-6.99-14.38-16.13-14.19Zm573.78-316.63c7.58-9.55,18.44-10.69,26.54-2.77,6.45,6.3,6.64,13.79.54,20.72-6.06,5.36-12.95,6.34-20.5,3.93l.23.18c-6.76-5.97-9.57-13.15-6.81-22.06Zm16.47,3.09c-2.52-1.9-4.42-3.92-4.93-3.62-1.82,1.08-3.17,2.96-4.7,4.54,1.32,1.1,2.75,3.19,3.94,3.06,1.64-.18,3.08-2.04,5.69-3.98Zm-361.7,394.53c-.66.06-1.75-.11-1.92.21-3.58,6.77-7.07,13.59-10.57,20.4.91-.79,1.82-1.58,2.73-2.37,3.25-6.08,6.5-12.16,9.75-18.24Z"/>
</svg>